<svg width="19" height="18" viewBox="0 0 19 18" fill="none" xmlns="http://www.w3.org/2000/svg">
<path d="M9.97009 0C4.9998 0 0.970093 4.05403 0.970093 9.05433C0.970093 13.5729 4.26082 17.3181 8.56415 18V11.6722H6.27792V9.05433H8.56415V7.05946C8.56415 4.78841 9.90799 3.53607 11.9629 3.53607C12.9476 3.53607 13.9791 3.71265 13.9791 3.71265V5.93933H12.8414C11.7253 5.93933 11.376 6.63839 11.376 7.35466V9.05252H13.8702L13.4714 11.6704H11.376V17.9982C15.6794 17.32 18.9701 13.5738 18.9701 9.05433C18.9701 4.05403 14.9404 0 9.97009 0V0Z" fill="#5D5D5D"/>
</svg>
