<svg width="25" height="18" viewBox="0 0 25 18" fill="none" xmlns="http://www.w3.org/2000/svg">
<path d="M24.4914 2.83001C24.3491 2.28713 24.0711 1.79205 23.685 1.39403C23.2988 0.996009 22.818 0.708936 22.2905 0.561385C20.3344 0.00900178 12.5087 9.75857e-06 12.5087 9.75857e-06C12.5087 9.75857e-06 4.68419 -0.00898279 2.72682 0.518993C2.1996 0.673334 1.71981 0.964467 1.33352 1.36444C0.947219 1.76441 0.667387 2.2598 0.520884 2.80303C0.00499852 4.81474 1.83014e-06 8.98715 1.83014e-06 8.98715C1.83014e-06 8.98715 -0.00499461 13.1801 0.507143 15.1713C0.79444 16.2722 1.63759 17.1419 2.70934 17.4386C4.68544 17.991 12.4899 18 12.4899 18C12.4899 18 20.3156 18.009 22.2717 17.4823C22.7995 17.335 23.2807 17.0486 23.6678 16.6514C24.0549 16.2542 24.3345 15.7599 24.4789 15.2175C24.9961 13.2071 24.9998 9.03597 24.9998 9.03597C24.9998 9.03597 25.0248 4.84171 24.4914 2.83001V2.83001ZM10.0054 12.8526L10.0117 5.14488L16.5158 9.00514L10.0054 12.8526V12.8526Z" fill="#5D5D5D"/>
</svg>
