<svg width="18" height="18" viewBox="0 0 18 18" fill="none" xmlns="http://www.w3.org/2000/svg">
<circle cx="9" cy="9" r="9" fill="#5D5D5D"/>
<path d="M5.6162 6.21061C6.22664 6.21061 6.7215 5.71575 6.7215 5.1053C6.7215 4.49486 6.22664 4 5.6162 4C5.00576 4 4.51089 4.49486 4.51089 5.1053C4.51089 5.71575 5.00576 6.21061 5.6162 6.21061Z" fill="white"/>
<path d="M7.76518 6.86725V12.9995H9.66915V9.96695C9.66915 9.16677 9.81969 8.39184 10.8118 8.39184C11.7903 8.39184 11.8025 9.3067 11.8025 10.0175V13H13.7075V9.63708C13.7075 7.98518 13.3518 6.7157 11.4211 6.7157C10.4941 6.7157 9.87273 7.2244 9.61863 7.70582H9.59287V6.86725H7.76518V6.86725ZM4.66245 6.86725H6.56945V12.9995H4.66245V6.86725Z" fill="white"/>
</svg>
