<svg width="23" height="18" viewBox="0 0 23 18" fill="none" xmlns="http://www.w3.org/2000/svg">
<path d="M20.7099 4.4859C20.7244 4.68325 20.7244 4.87946 20.7244 5.07568C20.7244 11.0806 16.1872 18 7.89519 18C5.34054 18 2.96724 17.2546 0.970093 15.96C1.3328 16.0018 1.68208 16.0164 2.05935 16.0164C4.08895 16.0214 6.06109 15.3377 7.65786 14.0757C6.71685 14.0585 5.80465 13.7458 5.04862 13.1811C4.29259 12.6165 3.73049 11.8281 3.44078 10.9261C3.71953 10.9678 3.9994 10.996 4.29271 10.996C4.69684 10.996 5.10321 10.9396 5.48047 10.8415C4.45924 10.6338 3.54095 10.0762 2.88174 9.26352C2.22253 8.45084 1.86309 7.43326 1.86456 6.38379V6.3274C2.46572 6.66458 3.16315 6.87545 3.90201 6.90365C3.28304 6.48932 2.7755 5.9271 2.42468 5.26715C2.07385 4.6072 1.89065 3.87003 1.89142 3.12141C1.89142 2.27791 2.1142 1.50432 2.5049 0.829972C3.63797 2.23395 5.05116 3.38254 6.65294 4.20134C8.25473 5.02015 10.0094 5.49091 11.8033 5.58314C11.7339 5.24483 11.6913 4.89412 11.6913 4.54229C11.691 3.9457 11.8075 3.35491 12.034 2.80368C12.2605 2.25245 12.5926 1.75159 13.0114 1.32974C13.4302 0.907895 13.9274 0.573324 14.4746 0.345158C15.0219 0.116992 15.6084 -0.000295879 16.2006 5.60527e-07C17.4992 5.60527e-07 18.6713 0.548052 19.4952 1.43441C20.5047 1.23776 21.4728 0.866533 22.3566 0.337176C22.0201 1.38684 21.3152 2.2769 20.374 2.84062C21.2694 2.73775 22.1444 2.50057 22.9701 2.13695C22.3534 3.04259 21.5892 3.83675 20.7099 4.4859V4.4859Z" fill="#5D5D5D"/>
</svg>
