<svg width="18" height="18" viewBox="0 0 18 18" fill="none" xmlns="http://www.w3.org/2000/svg">
<path d="M17.9122 5.31279C17.9021 4.557 17.7606 3.80874 17.4941 3.10145C17.2629 2.50486 16.9098 1.96305 16.4574 1.51064C16.005 1.05823 15.4632 0.705162 14.8666 0.474C14.1684 0.21191 13.4308 0.0701931 12.6852 0.0548842C11.7252 0.0119748 11.4209 0 8.98403 0C6.54718 0 6.23484 6.6914e-08 5.28185 0.0548842C4.53658 0.0703057 3.79933 0.212021 3.10145 0.474C2.50477 0.705001 1.96288 1.05801 1.51044 1.51044C1.05801 1.96288 0.705001 2.50477 0.473999 3.10145C0.211385 3.79911 0.0699754 4.53653 0.055882 5.28185C0.0129726 6.24282 0 6.54718 0 8.98404C0 11.4209 -7.43489e-09 11.7322 0.055882 12.6862C0.0708504 13.4326 0.211553 14.1691 0.473999 14.8686C0.705388 15.4651 1.05866 16.0068 1.51125 16.459C1.96383 16.9113 2.50577 17.2641 3.10245 17.4951C3.79841 17.7677 4.5358 17.9196 5.28285 17.9441C6.24382 17.987 6.54818 18 8.98503 18C11.4219 18 11.7342 18 12.6872 17.9441C13.4328 17.9294 14.1704 17.7881 14.8686 17.526C15.465 17.2946 16.0067 16.9414 16.4591 16.489C16.9115 16.0367 17.2646 15.495 17.4961 14.8985C17.7585 14.2 17.8992 13.4636 17.9142 12.7162C17.9571 11.7562 17.9701 11.4518 17.9701 9.01397C17.9681 6.57712 17.9681 6.26777 17.9122 5.31279V5.31279ZM8.97805 13.5923C6.42943 13.5923 4.36479 11.5277 4.36479 8.97905C4.36479 6.43043 6.42943 4.36578 8.97805 4.36578C10.2016 4.36578 11.375 4.85182 12.2401 5.71698C13.1053 6.58213 13.5913 7.75553 13.5913 8.97905C13.5913 10.2026 13.1053 11.376 12.2401 12.2411C11.375 13.1063 10.2016 13.5923 8.97805 13.5923V13.5923ZM13.7749 5.27087C13.6336 5.271 13.4937 5.24327 13.3631 5.18926C13.2325 5.13524 13.1139 5.05601 13.014 4.95609C12.9141 4.85618 12.8348 4.73754 12.7808 4.60696C12.7268 4.47639 12.6991 4.33645 12.6992 4.19514C12.6992 4.05394 12.727 3.91412 12.781 3.78367C12.8351 3.65322 12.9143 3.53469 13.0141 3.43484C13.114 3.335 13.2325 3.2558 13.3629 3.20176C13.4934 3.14773 13.6332 3.11991 13.7744 3.11991C13.9156 3.11991 14.0554 3.14773 14.1859 3.20176C14.3163 3.2558 14.4349 3.335 14.5347 3.43484C14.6346 3.53469 14.7138 3.65322 14.7678 3.78367C14.8218 3.91412 14.8497 4.05394 14.8497 4.19514C14.8497 4.78989 14.3687 5.27087 13.7749 5.27087Z" fill="#5D5D5D"/>
<path d="M8.97803 11.9756C10.633 11.9756 11.9747 10.634 11.9747 8.97897C11.9747 7.32396 10.633 5.9823 8.97803 5.9823C7.32301 5.9823 5.98135 7.32396 5.98135 8.97897C5.98135 10.634 7.32301 11.9756 8.97803 11.9756Z" fill="#5D5D5D"/>
</svg>
